<svg width="44" height="45" viewBox="0 0 44 45" fill="none" xmlns="http://www.w3.org/2000/svg">
<path d="M43.1058 17.1462V22.2557C42.4442 22.9174 41.856 23.3585 41.4517 23.8731C40.1283 25.564 38.8418 27.255 37.5552 28.9827C35.3496 31.9234 33.1441 34.8641 30.2768 37.2535C24.4689 42.0322 16.5289 42.4733 10.8312 38.246C7.96398 36.1139 6.45685 33.21 5.97898 29.7178C4.69241 20.6016 11.3458 8.58126 21.1973 4.79506C24.3586 3.582 27.5199 3.47172 30.6077 4.97885C34.7982 7.00061 36.3054 10.9706 35.9745 15.3082C35.6437 19.6826 33.4014 22.6968 29.4314 24.4245C28.2183 24.9391 27.042 25.5273 25.829 26.1154C22.1163 27.8431 18.808 29.9016 18.4404 34.5701C14.8747 33.357 14.0293 28.5048 16.7127 24.5716C15.2791 23.1379 14.7277 21.447 15.6099 19.4988C16.1613 18.2857 17.0068 17.2932 18.4036 16.7786C18.4404 17.0727 18.4771 17.2565 18.4771 17.4035C18.4404 19.6826 19.2858 20.7118 21.5649 20.9324C24.8732 21.1897 27.9978 20.381 30.7915 18.5798C31.0856 18.396 31.3429 18.1754 31.6002 17.9181C32.4089 17.0727 32.4456 16.4478 31.7472 15.492C30.0195 13.2129 27.5934 12.441 24.91 12.6248C19.9843 12.9556 15.8672 15.0509 12.6324 18.8371C11.6767 19.9766 10.9415 21.2632 10.7209 22.7703C10.3901 24.9391 11.0885 26.7403 12.6692 28.2107C13.2573 28.7621 13.5514 29.3135 13.5881 30.1222C13.7352 32.8424 16.2348 35.7096 18.8815 36.3345C19.0285 36.3713 19.1756 36.3345 19.2858 36.3345C19.5799 35.1215 19.8005 33.9084 20.0945 32.7321C20.2783 32.0337 20.6092 31.7396 21.4546 31.9602C24.5424 32.7321 27.5199 32.2542 30.0931 30.453C32.2251 28.9827 34.1366 27.2182 36.0848 25.4538C38.3271 23.3952 40.4959 21.2632 42.7015 19.1312C42.8485 18.9841 43.0323 18.7268 43.0323 18.5063C43.0691 18.0652 43.0691 17.6241 43.1058 17.1462Z" fill="white"/>
<path d="M43.1059 33.2835C43.1059 33.3937 43.0691 33.5408 43.0691 33.6511C42.1869 39.1282 38.2536 43.0982 32.85 44.1274C32.6295 44.1642 32.4457 44.2745 32.2619 44.348H10.9415C10.6474 44.2745 10.3534 44.1275 10.0593 44.0907C4.54539 43.135 0.134282 38.2092 0.060764 32.6953C-0.0495138 25.9684 0.0240081 19.2414 0.0240081 12.5145C0.0240081 11.7058 0.0240081 10.8603 0.207804 10.0884C1.3841 4.42746 5.57465 0.678009 11.2723 0.0898604C11.7502 0.0531012 12.2648 0.0163374 12.7795 0.0163374C18.6242 -0.0204218 24.4689 0.0163374 30.3136 0.0163374C30.9753 0.0163374 31.6002 0.0163419 32.2619 0.0898604C32.4457 0.0898604 32.5927 0.126624 32.7765 0.163383C38.1066 1.08236 42.1501 4.90533 42.9588 10.2722C43.0691 11.0074 43.1426 11.7425 43.1794 12.5145C43.2529 14.0584 43.1794 15.639 43.1794 17.1829C43.1794 17.624 43.1794 18.1019 43.1794 18.543C43.1794 18.7636 42.9956 18.9841 42.8485 19.1679C40.643 21.3 38.511 23.432 36.2319 25.4905C34.3204 27.2182 32.3722 29.0194 30.2401 30.4898C27.667 32.291 24.6895 32.8056 21.6017 31.9969C20.7562 31.7763 20.4254 32.0704 20.2416 32.7688C19.9475 33.9451 19.6902 35.1214 19.4329 36.3713C19.3226 36.3713 19.1756 36.408 19.0285 36.3713C16.3819 35.7463 13.8822 32.8424 13.7352 30.1589C13.6984 29.3135 13.4044 28.7621 12.8162 28.2475C11.2356 26.7771 10.5372 24.9759 10.868 22.8071C11.0885 21.2999 11.787 20.0134 12.7795 18.8739C16.0143 15.1244 20.1313 13.0291 25.0571 12.6615C27.7405 12.4777 30.1666 13.2497 31.8943 15.5287C32.5927 16.4477 32.5559 17.1094 31.7472 17.9549C31.4899 18.2122 31.2326 18.4327 30.9385 18.6165C28.1081 20.4177 25.0203 21.2264 21.712 20.9691C19.4329 20.7853 18.5874 19.7193 18.6242 17.4402C18.6242 17.2564 18.5874 17.1094 18.5507 16.8153C17.1538 17.33 16.3084 18.2857 15.757 19.5355C14.8747 21.4838 15.4261 23.2114 16.8597 24.6083C14.1763 28.5048 15.0218 33.3938 18.5874 34.6068C18.955 29.9751 22.2634 27.8799 25.976 26.1522C27.1891 25.6008 28.3654 25.0126 29.5784 24.4612C33.5852 22.6968 35.7908 19.7193 36.1216 15.345C36.4524 11.0074 34.9453 7.03737 30.7547 5.01561C27.667 3.54524 24.5057 3.61876 21.3444 4.83181C11.4929 8.61802 4.83947 20.6383 6.12604 29.7546C6.60391 33.2467 8.11104 36.1507 10.9783 38.2827C16.7127 42.5101 24.6527 42.1057 30.4239 37.2902C33.2911 34.9376 35.4967 31.9969 37.7022 29.0194C38.9888 27.2917 40.2754 25.6008 41.5987 23.9099C42.0398 23.3585 42.5912 22.9174 43.2529 22.2925C43.2529 25.3435 43.2529 28.1004 43.2529 30.8941C43.1059 31.6293 43.1794 32.4748 43.1059 33.2835Z" fill="#F15A24"/>
</svg>
