<svg width="38" height="42" viewBox="0 0 38 42" fill="none" xmlns="http://www.w3.org/2000/svg">
<path d="M18.8561 0.000766101H18.9909C19.0277 3.27112 18.9718 9.83096 18.9718 9.83096C15.8407 8.07677 12.6882 6.36391 9.55868 4.60437C11.6088 3.44001 13.6604 2.27897 15.7135 1.12124C16.6859 0.573251 17.7319 0.102558 18.8561 0.000766101Z" fill="#B8CE01"/>
<path d="M19.2132 0C20.4308 0.109445 21.5312 0.688817 22.5803 1.27661C24.5338 2.37719 26.4848 3.48287 28.4332 4.59365C25.2914 6.3333 22.1151 8.1005 18.9688 9.83479C18.9419 6.56443 19.017 3.27035 18.9802 0H19.2132Z" fill="#7DB425"/>
<path d="M9.56099 4.60054L18.9741 9.82714L9.49586 15.3576C9.49586 15.3576 9.49126 11.8484 9.50199 10.0988C9.49356 8.28189 9.56099 4.60054 9.56099 4.60054Z" fill="#F6A925"/>
<path d="M28.4439 4.59442L28.4707 4.60896C28.4631 7.8686 28.4707 11.1282 28.4707 14.3879C28.4654 14.707 28.4623 15.3652 28.4623 15.3652L18.9749 9.83097C18.9749 9.83097 25.3029 6.33407 28.447 4.59442H28.4439Z" fill="#35AC9D"/>
<path d="M28.463 4.60819C30.5534 5.79526 32.6293 7.00834 34.706 8.21836C35.7106 8.78166 36.7749 9.40619 37.3236 10.4677C34.3826 12.0941 28.4592 15.366 28.4592 15.366C28.4592 15.366 28.4546 14.707 28.4592 14.3879C28.4592 11.1282 28.4546 7.8686 28.4592 4.60896L28.463 4.60819Z" fill="#59D6BD"/>
<path d="M3.56322 8.03851C5.52876 6.89048 9.55484 4.6036 9.55484 4.6036L9.49967 15.3576C9.49967 15.3576 3.59924 12.1087 0.667412 10.4815C1.3065 9.34726 2.46053 8.65768 3.56322 8.03851Z" fill="#EF7414"/>
<path d="M18.9656 9.83019L28.4531 15.3637C28.4531 15.3637 25.4002 17.0513 23.8844 17.8618C22.2645 18.7802 18.9733 20.6033 18.9733 20.6033L9.49737 15.3576L18.9656 9.83019Z" fill="white"/>
<path d="M0 14.7736C0.00842919 13.3302 -0.0176194 11.7979 0.663612 10.4815C3.59774 12.1086 9.49586 15.3576 9.49586 15.3576C6.32572 17.1883 3.17091 19.0466 0.00230026 20.8796C-0.00229748 18.8438 0.00230026 16.8087 0.00230026 14.7736H0Z" fill="#E74B50"/>
<path d="M37.3236 10.4677C37.9014 11.5469 37.9858 12.8021 37.9536 14.0029C37.9536 16.2844 37.9536 20.8995 37.9536 20.8995L28.4608 15.3652C28.4608 15.3652 34.3826 12.0941 37.3236 10.4677Z" fill="#794387"/>
<path d="M9.49586 15.3576C9.51042 15.3515 18.9718 20.6033 18.9718 20.6033C18.9718 20.6033 18.9757 26.0901 18.9772 28.7742C18.9925 29.6383 18.9718 31.3848 18.9718 31.3848C15.8094 29.6414 12.6637 27.8826 9.50048 26.1391L9.49513 26.1154C9.49513 22.5295 9.49586 18.9435 9.49586 15.3576Z" fill="#E4E4E4"/>
<path d="M0.00230026 20.8796C3.17091 19.0427 6.32572 17.1883 9.49586 15.3576C9.4928 18.944 9.49206 22.53 9.49513 26.1154C9.00853 25.9126 8.56633 25.6233 8.10196 25.3776C5.40232 23.8951 2.71111 22.3782 0.00151062 20.9102V20.8819L0.00230026 20.8796Z" fill="#794387"/>
<path d="M28.4592 15.366C28.4592 17.5651 28.4592 19.763 28.4592 21.961C28.4493 23.3593 28.4945 24.7523 28.4592 26.1498C25.3014 27.8642 18.9718 31.3848 18.9718 31.3848C18.9718 31.3848 18.9925 29.6383 18.9772 28.7742C18.9772 26.0901 18.9718 20.6033 18.9718 20.6033L28.4592 15.366Z" fill="#F1F1F1"/>
<path d="M28.4592 15.366C28.4592 15.366 37.9521 20.8865 37.9521 20.8995C34.7972 22.646 28.4592 26.1498 28.4592 26.1498C28.4945 24.7523 28.4493 23.3593 28.4592 21.961C28.4592 19.7619 28.4608 17.5633 28.4608 15.3652L28.4592 15.366Z" fill="#4C3683"/>
<path d="M0.00151062 20.9102C2.71111 22.3805 5.39849 23.8951 8.10119 25.3799C8.56556 25.6256 9.00849 25.9156 9.49508 26.1177L9.50044 26.1414C6.58854 27.8369 3.67818 29.5332 0.769341 31.2302C0.462825 30.7641 0.309565 30.2207 0.193855 29.6804C0.010712 28.7796 0.000747681 27.8566 0.000747681 26.9412C0.000747681 24.9309 0.00151062 22.9205 0.00151062 20.9102Z" fill="#4C3683"/>
<path d="M37.9521 20.8995C37.9566 23.0157 37.952 25.1319 37.952 27.2481C37.9827 28.6051 37.9428 30.0508 37.2187 31.2471C34.598 29.7164 28.4577 26.1498 28.4577 26.1498C28.4577 26.1498 34.7972 22.646 37.9521 20.8995Z" fill="#E74B50"/>
<path d="M0.769356 31.2279C3.67819 29.5289 6.58859 27.8326 9.50048 26.1391C9.48133 29.7233 9.50658 33.3082 9.48819 36.8916C7.42687 35.7308 5.37092 34.5608 3.32033 33.3816C2.3617 32.8153 1.38009 32.1854 0.769356 31.2279Z" fill="#0F68A0"/>
<path d="M9.50048 26.1391C12.6637 27.8826 15.8094 29.6414 18.9718 31.3848C15.8147 33.2217 9.49278 36.8954 9.48819 36.8916C9.50658 33.3082 9.48133 29.7233 9.50048 26.1391Z" fill="#49BDCA"/>
<path d="M28.4447 26.1567L28.4592 26.1498C28.4684 29.7347 28.4409 33.3204 28.4746 36.9053L28.4508 36.9168C25.9481 35.4236 23.4155 33.9779 20.9013 32.5023C20.2684 32.1425 18.9718 31.3848 18.9718 31.3848C18.9718 31.3848 25.2868 27.8749 28.4447 26.1567Z" fill="#F6A925"/>
<path d="M28.4592 26.1498C28.7389 26.3404 34.6003 29.7179 37.221 31.2471C36.8486 31.8823 36.2585 32.3484 35.6639 32.7655C34.7045 33.41 33.6807 33.9495 32.683 34.5297C31.2799 35.3218 29.8861 36.13 28.4746 36.9023C28.4408 33.3174 28.4692 29.7317 28.46 26.1468L28.4592 26.1498Z" fill="#EF7414"/>
<path d="M18.9718 31.3848L18.9718 41.5587C18.1863 41.4431 17.3304 41.2625 16.6346 40.8637C14.2507 39.5427 11.8629 38.2294 9.48819 36.8916C12.6453 35.0509 15.8147 33.2255 18.9718 31.3848Z" fill="#7DB425"/>
<path d="M18.9718 31.3848C18.9718 31.3848 20.2684 32.1425 20.9013 32.5023C23.4155 33.9779 25.9481 35.4236 28.4508 36.9168C26.0094 38.2659 23.5683 39.618 21.1274 40.9732C20.5174 41.3113 19.8408 41.5121 19.145 41.5617C19.1021 41.5617 18.9718 41.5617 18.9718 41.5617L18.9718 31.3848Z" fill="#B8CE01"/>
</svg>
